PathFileType	4	(X/Y/Z)	C:\Data\4407\4407cd05.trc
DataRate	CameraRate	NumFrames	NumMarkers	Units	OrigDataRate	OrigDataStartFrame	OrigNumFrames
200.00	200.00	      8	29	mm	200.00	1251	      2000
Frame#	Time	Offset			RShoulder			RUpperArm			RElbow			RForearm			RWrist			LShoulder			LUpperArm			LElbow			LForearm			LWrist			LPSIS			RPSIS			RASIS			RThigh			RKnee			RShank			RAnkle			RHeel			RLat5			RToe			LASIS			LThigh			LKnee			LShank			LAnkle			LHeel			LLat5			LToe			
		X1	Y1	Z1	X2	Y2	Z2	X3	Y3	Z3	X4	Y4	Z4	X5	Y5	Z5	X6	Y6	Z6	X7	Y7	Z7	X8	Y8	Z8	X9	Y9	Z9	X10	Y10	Z10	X11	Y11	Z11	X12	Y12	Z12	X13	Y13	Z13	X14	Y14	Z14	X15	Y15	Z15	X16	Y16	Z16	X17	Y17	Z17	X18	Y18	Z18	X19	Y19	Z19	X20	Y20	Z20	X21	Y21	Z21	X22	Y22	Z22	X23	Y23	Z23	X24	Y24	Z24	X25	Y25	Z25	X26	Y26	Z26	X27	Y27	Z27	X28	Y28	Z28	X29	Y29	Z29	

1251	6.250	317.48083	-271.59933	1416.18225	468.36435	-188.69954	1541.42444	467.56833	-341.70026	1435.61609	553.97150	-400.55112	1301.50977	510.36505	-331.40625	1151.40991	546.78357	-200.53146	1130.74414	131.37134	-138.65572	1551.43982	52.53788	-188.02731	1343.52893	-25.32410	-123.01524	1250.15918	80.62416	7.12319	1274.19653	126.07388	39.93819	1413.71118	270.52725	-256.32660	1084.40393	320.82040	-253.87427	1081.72864	401.09296	-44.69390	1059.82568	344.91107	114.74981	887.40826	419.78583	189.02679	688.53534	374.99533	220.38200	605.41772	380.91028	78.80402	272.92096	327.90988	12.69234	253.63481	311.27570	214.13443	184.85545	417.40845	197.26767	185.58784	156.28741	-61.62907	1012.15143	200.53165	-163.98705	687.14893	168.31795	-316.03793	576.77441	218.80733	-333.82861	496.81570	226.43246	-619.53949	290.29910	278.50256	-656.78552	338.29318	224.96918	-615.62579	126.05455	333.95483	-601.00604	134.47176	
1252	6.255	316.95242	-271.63614	1418.25891	468.95175	-189.76924	1543.28308	466.92987	-342.45630	1437.49268	553.09686	-402.15735	1303.53796	509.69986	-332.13071	1153.91101	546.37482	-201.15366	1134.05212	131.41063	-138.07458	1554.09973	51.68209	-187.43063	1346.00659	-26.00860	-122.13319	1253.20239	82.06261	6.69291	1276.20679	129.50812	38.69805	1415.95020	270.46704	-255.86322	1087.92078	320.46854	-253.70837	1084.29700				345.05142	112.95805	883.79895	420.90378	184.31531	684.37286	376.62952	216.34108	604.48334	380.69186	92.67504	264.82828	327.69360	27.40098	242.85971	309.29050	232.13120	184.27075	415.45840	215.49263	182.39616	155.78447	-60.78307	1016.22614	199.38750	-161.74278	689.81244	168.10594	-313.23447	577.90643	218.76125	-335.10086	499.42487	228.18913	-628.31067	303.52670	279.38214	-665.17810	352.29062	227.35992	-627.19232	139.00595	336.41635	-613.43518	148.01602	
1253	6.260	316.54868	-271.63101	1420.54395	469.55106	-190.84570	1545.07446	466.44855	-343.02823	1438.97046	552.24133	-403.54007	1305.22900	509.05685	-332.45712	1155.87622	546.16150	-201.58455	1137.01233	131.26352	-137.42979	1556.57813	51.03263	-186.99870	1348.23853	-24.53458	-118.89457	1256.46301	83.29763	6.09773	1277.99060	132.71320	37.58919	1417.29724	270.26730	-255.52805	1090.80249	320.05737	-253.72154	1086.03613	401.55835	-45.16536	1062.43176	345.73523	110.77006	879.15356	421.71832	178.95230	679.70953	378.02921	213.19894	601.70026	380.18967	105.97838	257.22678	327.51859	41.66544	232.76753	307.24902	248.53397	183.92107	413.38873	232.87704	179.47829	155.42599	-59.88253	1019.85187	198.99120	-158.16159	691.88611	167.83528	-310.00565	578.48981	218.48679	-335.88223	501.67337	229.57805	-636.31323	316.73105	280.11890	-671.39825	366.64047	230.00348	-638.70648	152.25069	339.00400	-625.32904	161.71051	
1254	6.265	316.41977	-271.66730	1422.76221	470.29004	-191.73901	1546.71387	466.00485	-343.43216	1439.79480	551.86090	-404.99466	1306.19507	508.59476	-332.61572	1157.54358	545.94684	-201.73480	1139.57434	131.03316	-136.87688	1558.69495	50.50640	-186.91281	1350.23047	-24.75795	-118.63800	1259.02551	84.49017	5.27031	1278.88794	135.79114	37.07195	1418.07117	270.07065	-255.68225	1093.06946	319.41333	-253.86404	1087.43030	401.82700	-45.42657	1063.48425	346.97452	108.96989	873.80969	422.19327	172.93221	674.72314	379.23724	208.59894	598.51752	379.84378	118.55338	250.05968	327.89526	54.90324	223.49881	304.97055	263.68857	183.63193	411.12253	249.31589	176.83957	154.93065	-58.96497	1023.41028	198.58592	-154.48941	693.27032	167.22067	-306.70093	578.39655	218.03171	-336.00766	503.31406	230.71861	-643.54395	329.93951	280.78656	-677.32550	381.43051	233.21484	-650.35657	165.56036	341.97098	-636.42761	176.29158	
1255	6.270	316.39902	-271.82098	1424.97302	471.06906	-192.59908	1548.33618	465.58771	-343.91202	1440.24475	548.33795	-405.50049	1306.89172	508.06970	-332.36475	1158.64844	545.67969	-201.48068	1141.49878	130.90912	-136.33813	1560.65540	50.04372	-187.27951	1352.29333	-24.91562	-118.80753	1261.39832	85.69861	4.07743	1279.43872	138.65979	36.60423	1417.71606	269.56320	-255.71309	1094.74268	318.59067	-253.93501	1088.56323	401.92715	-45.59074	1064.19617	348.66034	107.11318	868.12360	422.48749	166.46042	669.25928	380.07288	203.80823	594.93555	379.33563	130.18677	243.40378	327.37988	67.44086	215.02972	302.75424	277.53021	183.55685	408.86176	264.20349	174.66550	154.65649	-58.02180	1026.68005	198.03926	-150.73914	694.61218	166.63107	-302.92380	578.18121	217.41924	-335.40143	504.30795	231.64261	-649.84204	342.95642	282.03192	-682.65344	396.71747	236.57611	-661.84601	179.18764	345.87805	-646.06885	190.79379	
1256	6.275	316.60016	-272.03137	1426.99377	471.79477	-193.09224	1549.78381	465.33801	-344.28183	1440.32202	547.58685	-406.00107	1307.40955	507.55545	-331.97729	1159.45911	545.54852	-200.88287	1143.16907	130.88680	-135.80324	1562.40369	49.86580	-187.78322	1354.33716	-25.01859	-119.63429	1263.37134	87.07362	2.71701	1279.39380	141.64200	36.63874	1416.82605	268.92932	-255.59050	1095.92639	317.94794	-253.96437	1088.97327	402.12543	-45.82094	1065.15027	350.55234	105.16917	861.96619	422.76071	159.56837	663.70282	381.07401	198.29927	590.76764	378.87994	141.03961	237.42792	327.31851	79.25853	207.36151	300.67798	289.58261	183.17105	406.66150	277.98505	172.95731	154.34076	-57.20383	1029.32019	197.73022	-147.04323	695.52789	165.75595	-298.67453	577.80023	216.59398	-333.98825	505.13086	232.48965	-655.12927	356.15778	282.50412	-685.88892	411.83194	239.89261	-672.94318	193.25349	348.39502	-656.02386	206.16496	
1257	6.280	317.25684	-272.26788	1428.81189	472.44699	-193.52997	1551.14624	465.02722	-344.70956	1440.07800	547.04602	-406.03214	1307.53149	507.11655	-331.01205	1159.87573	545.52289	-200.08566	1144.19788	131.09344	-135.44373	1563.88794	50.00789	-188.57567	1356.45825	-25.50166	-121.18340	1265.24438	88.14369	0.87292	1278.71289	144.57655	36.77261	1414.88611	268.16010	-255.61848	1096.70581	316.92575	-254.44838	1090.06409	402.14920	-45.93460	1066.04834	352.51862	102.94319	855.46362	422.77985	151.86102	657.60205	381.53525	192.58897	586.56677	378.08301	150.97154	231.69885	327.05099	89.62647	200.70590	298.55597	300.54660	182.62430	404.45215	289.62357	171.72365	154.37004	-56.32928	1031.41528	198.27592	-142.13202	696.31488	165.07281	-293.78900	577.31799	215.90758	-332.14383	505.47995	232.58018	-658.55981	369.82971	283.47714	-687.96582	426.98401	243.28464	-683.33765	207.78479	352.29788	-663.78644	221.41815	
1258	6.285	318.03247	-272.61435	1430.38770	473.11499	-193.84259	1552.48499	464.84369	-344.97137	1439.56201	546.59924	-405.51117	1307.29431	506.83902	-329.90012	1159.91174	545.43481	-198.93283	1144.98853	131.54468	-135.17450	1565.07886	50.15015	-189.79582	1358.61108	-24.95283	-122.35876	1266.84534	89.17544	-1.16774	1277.44189	147.09782	37.29331	1412.27966	267.25488	-255.41222	1097.08203	315.94839	-254.56697	1090.01831	402.17911	-46.06063	1067.17944	354.47705	100.63916	848.57086	422.83899	144.15251	650.86884	381.60806	186.31502	581.71619	377.87680	158.46147	226.83681	326.80249	98.97364	194.63501	296.48477	309.94720	181.76953	402.74164	300.51376	170.83817	154.19749	-55.45608	1033.10852	198.87398	-137.86147	696.71564	164.22095	-288.78549	576.51764	214.79291	-329.25882	505.41711				284.47763	-688.90173	442.39639	246.40387	-692.47845	222.65222	354.23914	-671.40552	237.07375	
